<svg id="visual" viewBox="0 0 900 600" width="900" height="600" xmlns="http://www.w3.org/2000/svg" xmlns:xlink="http://www.w3.org/1999/xlink" version="1.1"><g stroke-width="1" stroke-linejoin="bevel"><path d="M435 262L516 273L528 229Z" fill="#fbfbfb" stroke="#fbfbfb"></path><path d="M528 229L394 165L435 262Z" fill="#f9f9f9" stroke="#f9f9f9"></path><path d="M528 229L504 102L394 165Z" fill="#f8f8f8" stroke="#f8f8f8"></path><path d="M504 102L407 112L394 165Z" fill="#fcfcfc" stroke="#fcfcfc"></path><path d="M631 331L639 183L528 229Z" fill="#f8f8f8" stroke="#f8f8f8"></path><path d="M528 229L639 183L504 102Z" fill="#f7f7f7" stroke="#f7f7f7"></path><path d="M289 270L382 384L435 262Z" fill="#f5f5f5" stroke="#f5f5f5"></path><path d="M435 262L382 384L516 273Z" fill="#fcfcfc" stroke="#fcfcfc"></path><path d="M516 273L631 331L528 229Z" fill="#fbfbfb" stroke="#fbfbfb"></path><path d="M503 439L631 331L516 273Z" fill="#f1f1f1" stroke="#f1f1f1"></path><path d="M280 203L289 270L394 165Z" fill="#fefefe" stroke="#fefefe"></path><path d="M394 165L289 270L435 262Z" fill="#f8f8f8" stroke="#f8f8f8"></path><path d="M382 384L503 439L516 273Z" fill="#f5f5f5" stroke="#f5f5f5"></path><path d="M269 65L280 203L394 165Z" fill="#f2f2f2" stroke="#f2f2f2"></path><path d="M639 183L617 75L504 102Z" fill="#f1f1f1" stroke="#f1f1f1"></path><path d="M504 102L528 0L407 112Z" fill="#fbfbfb" stroke="#fbfbfb"></path><path d="M503 439L613 420L631 331Z" fill="#f5f5f5" stroke="#f5f5f5"></path><path d="M722 337L717 231L631 331Z" fill="#f7f7f7" stroke="#f7f7f7"></path><path d="M631 331L717 231L639 183Z" fill="#fcfcfc" stroke="#fcfcfc"></path><path d="M639 183L695 124L617 75Z" fill="#f1f1f1" stroke="#f1f1f1"></path><path d="M617 75L528 0L504 102Z" fill="#fcfcfc" stroke="#fcfcfc"></path><path d="M407 112L269 65L394 165Z" fill="#fbfbfb" stroke="#fbfbfb"></path><path d="M717 231L695 124L639 183Z" fill="#fefefe" stroke="#fefefe"></path><path d="M617 75L625 0L528 0Z" fill="#f4f4f4" stroke="#f4f4f4"></path><path d="M223 333L268 374L289 270Z" fill="#f9f9f9" stroke="#f9f9f9"></path><path d="M289 270L268 374L382 384Z" fill="#f1f1f1" stroke="#f1f1f1"></path><path d="M382 384L400 479L503 439Z" fill="#f5f5f5" stroke="#f5f5f5"></path><path d="M318 512L400 479L382 384Z" fill="#fefefe" stroke="#fefefe"></path><path d="M503 439L563 481L613 420Z" fill="#fcfcfc" stroke="#fcfcfc"></path><path d="M475 503L563 481L503 439Z" fill="#f8f8f8" stroke="#f8f8f8"></path><path d="M730 368L631 331L613 420Z" fill="#f8f8f8" stroke="#f8f8f8"></path><path d="M730 368L722 337L631 331Z" fill="#ffffff" stroke="#ffffff"></path><path d="M400 479L475 503L503 439Z" fill="#f1f1f1" stroke="#f1f1f1"></path><path d="M528 0L361 0L407 112Z" fill="#f8f8f8" stroke="#f8f8f8"></path><path d="M173 174L223 333L289 270Z" fill="#fbfbfb" stroke="#fbfbfb"></path><path d="M173 174L289 270L280 203Z" fill="#f9f9f9" stroke="#f9f9f9"></path><path d="M361 0L269 65L407 112Z" fill="#f1f1f1" stroke="#f1f1f1"></path><path d="M671 0L625 0L617 75Z" fill="#fbfbfb" stroke="#fbfbfb"></path><path d="M716 529L730 368L613 420Z" fill="#fcfcfc" stroke="#fcfcfc"></path><path d="M827 288L781 172L717 231Z" fill="#fbfbfb" stroke="#fbfbfb"></path><path d="M361 0L300 0L269 65Z" fill="#f5f5f5" stroke="#f5f5f5"></path><path d="M773 107L671 0L695 124Z" fill="#f5f5f5" stroke="#f5f5f5"></path><path d="M695 124L671 0L617 75Z" fill="#f5f5f5" stroke="#f5f5f5"></path><path d="M827 288L717 231L722 337Z" fill="#fcfcfc" stroke="#fcfcfc"></path><path d="M717 231L781 172L695 124Z" fill="#f8f8f8" stroke="#f8f8f8"></path><path d="M209 69L280 203L269 65Z" fill="#fefefe" stroke="#fefefe"></path><path d="M209 69L173 174L280 203Z" fill="#ffffff" stroke="#ffffff"></path><path d="M268 374L318 512L382 384Z" fill="#f2f2f2" stroke="#f2f2f2"></path><path d="M432 600L501 600L475 503Z" fill="#f5f5f5" stroke="#f5f5f5"></path><path d="M206 433L318 512L268 374Z" fill="#f5f5f5" stroke="#f5f5f5"></path><path d="M236 0L209 69L269 65Z" fill="#fcfcfc" stroke="#fcfcfc"></path><path d="M781 172L773 107L695 124Z" fill="#f9f9f9" stroke="#f9f9f9"></path><path d="M162 468L206 433L114 399Z" fill="#f1f1f1" stroke="#f1f1f1"></path><path d="M223 333L206 433L268 374Z" fill="#fcfcfc" stroke="#fcfcfc"></path><path d="M300 0L236 0L269 65Z" fill="#f8f8f8" stroke="#f8f8f8"></path><path d="M730 368L827 288L722 337Z" fill="#ffffff" stroke="#ffffff"></path><path d="M781 172L900 100L773 107Z" fill="#f7f7f7" stroke="#f7f7f7"></path><path d="M92 94L133 172L173 174Z" fill="#fcfcfc" stroke="#fcfcfc"></path><path d="M173 174L88 324L223 333Z" fill="#fcfcfc" stroke="#fcfcfc"></path><path d="M92 94L173 174L209 69Z" fill="#f5f5f5" stroke="#f5f5f5"></path><path d="M475 503L501 600L563 481Z" fill="#f7f7f7" stroke="#f7f7f7"></path><path d="M563 481L716 529L613 420Z" fill="#fcfcfc" stroke="#fcfcfc"></path><path d="M730 368L829 394L827 288Z" fill="#f1f1f1" stroke="#f1f1f1"></path><path d="M432 600L475 503L400 479Z" fill="#f7f7f7" stroke="#f7f7f7"></path><path d="M333 600L400 479L318 512Z" fill="#f2f2f2" stroke="#f2f2f2"></path><path d="M333 600L432 600L400 479Z" fill="#f4f4f4" stroke="#f4f4f4"></path><path d="M662 600L716 529L563 481Z" fill="#ffffff" stroke="#ffffff"></path><path d="M501 600L601 600L563 481Z" fill="#f5f5f5" stroke="#f5f5f5"></path><path d="M831 481L829 394L730 368Z" fill="#f4f4f4" stroke="#f4f4f4"></path><path d="M900 100L780 0L773 107Z" fill="#f7f7f7" stroke="#f7f7f7"></path><path d="M773 107L780 0L671 0Z" fill="#fcfcfc" stroke="#fcfcfc"></path><path d="M216 600L333 600L318 512Z" fill="#f5f5f5" stroke="#f5f5f5"></path><path d="M114 399L206 433L223 333Z" fill="#f8f8f8" stroke="#f8f8f8"></path><path d="M206 433L162 468L318 512Z" fill="#fefefe" stroke="#fefefe"></path><path d="M88 324L114 399L223 333Z" fill="#fcfcfc" stroke="#fcfcfc"></path><path d="M133 172L88 324L173 174Z" fill="#f8f8f8" stroke="#f8f8f8"></path><path d="M601 600L662 600L563 481Z" fill="#f7f7f7" stroke="#f7f7f7"></path><path d="M716 529L831 481L730 368Z" fill="#f8f8f8" stroke="#f8f8f8"></path><path d="M73 0L92 94L209 69Z" fill="#f1f1f1" stroke="#f1f1f1"></path><path d="M133 172L0 267L88 324Z" fill="#f8f8f8" stroke="#f8f8f8"></path><path d="M900 337L900 226L827 288Z" fill="#f2f2f2" stroke="#f2f2f2"></path><path d="M827 288L900 226L781 172Z" fill="#fefefe" stroke="#fefefe"></path><path d="M780 600L831 481L716 529Z" fill="#f4f4f4" stroke="#f4f4f4"></path><path d="M829 394L900 337L827 288Z" fill="#f9f9f9" stroke="#f9f9f9"></path><path d="M900 386L900 337L829 394Z" fill="#f8f8f8" stroke="#f8f8f8"></path><path d="M900 226L900 100L781 172Z" fill="#fefefe" stroke="#fefefe"></path><path d="M900 483L900 386L829 394Z" fill="#f8f8f8" stroke="#f8f8f8"></path><path d="M162 468L216 600L318 512Z" fill="#fcfcfc" stroke="#fcfcfc"></path><path d="M134 535L216 600L162 468Z" fill="#fefefe" stroke="#fefefe"></path><path d="M0 463L134 535L162 468Z" fill="#f8f8f8" stroke="#f8f8f8"></path><path d="M0 463L162 468L114 399Z" fill="#f5f5f5" stroke="#f5f5f5"></path><path d="M662 600L780 600L716 529Z" fill="#f1f1f1" stroke="#f1f1f1"></path><path d="M831 481L900 483L829 394Z" fill="#f5f5f5" stroke="#f5f5f5"></path><path d="M236 0L73 0L209 69Z" fill="#f1f1f1" stroke="#f1f1f1"></path><path d="M0 180L0 267L133 172Z" fill="#f9f9f9" stroke="#f9f9f9"></path><path d="M0 180L133 172L92 94Z" fill="#f1f1f1" stroke="#f1f1f1"></path><path d="M88 324L0 412L114 399Z" fill="#f2f2f2" stroke="#f2f2f2"></path><path d="M0 104L0 180L92 94Z" fill="#f9f9f9" stroke="#f9f9f9"></path><path d="M900 100L900 0L780 0Z" fill="#f4f4f4" stroke="#f4f4f4"></path><path d="M900 600L900 483L831 481Z" fill="#f1f1f1" stroke="#f1f1f1"></path><path d="M73 0L0 104L92 94Z" fill="#fefefe" stroke="#fefefe"></path><path d="M0 600L125 600L134 535Z" fill="#fefefe" stroke="#fefefe"></path><path d="M134 535L125 600L216 600Z" fill="#f7f7f7" stroke="#f7f7f7"></path><path d="M0 267L0 412L88 324Z" fill="#fefefe" stroke="#fefefe"></path><path d="M0 412L0 463L114 399Z" fill="#f4f4f4" stroke="#f4f4f4"></path><path d="M73 0L0 0L0 104Z" fill="#f7f7f7" stroke="#f7f7f7"></path><path d="M780 600L900 600L831 481Z" fill="#f2f2f2" stroke="#f2f2f2"></path><path d="M0 463L0 600L134 535Z" fill="#f7f7f7" stroke="#f7f7f7"></path></g></svg>