<svg xmlns="http://www.w3.org/2000/svg" xmlns:xlink="http://www.w3.org/1999/xlink" id="visual" version="1.1" viewBox="0 778 1500 123"><path d="M0 812L31.3 816.2C62.7 820.3 125.3 828.7 187.8 832.3C250.3 836 312.7 835 375.2 834.8C437.7 834.7 500.3 835.3 562.8 830.3C625.3 825.3 687.7 814.7 750.2 806C812.7 797.3 875.3 790.7 937.8 797.2C1000.3 803.7 1062.7 823.3 1125.2 822.8C1187.7 822.3 1250.3 801.7 1312.8 790.8C1375.3 780 1437.7 779 1468.8 778.5L1500 778L1500 901L1468.8 901C1437.7 901 1375.3 901 1312.8 901C1250.3 901 1187.7 901 1125.2 901C1062.7 901 1000.3 901 937.8 901C875.3 901 812.7 901 750.2 901C687.7 901 625.3 901 562.8 901C500.3 901 437.7 901 375.2 901C312.7 901 250.3 901 187.8 901C125.3 901 62.7 901 31.3 901L0 901Z" fill="#000" stroke-linecap="round" stroke-linejoin="miter"/></svg>