<svg version="1.1" xmlns:xlink="http://www.w3.org/1999/xlink" xmlns="http://www.w3.org/2000/svg" viewBox="0 430.79999999999995 900 97.2" id="visual" style="max-height: 500px" width="900" height="97.2"><path stroke-linejoin="bevel" stroke-linecap="square" fill="#000" d="M0 482L60 433L120 444L180 464L240 451L300 475L360 455L420 472L480 481L540 433L600 478L660 461L720 512L780 448L840 516L900 465L900 601L840 601L780 601L720 601L660 601L600 601L540 601L480 601L420 601L360 601L300 601L240 601L180 601L120 601L60 601L0 601Z"/></svg>